<svg
    width="48"
    height="48"
    viewBox="0 0 48 48"
    fill="none"
    xmlns="http://www.w3.org/2000/svg">
    <path
        d="M24 0C13.059 0 4 9.059 4 20C4 29.12 12.42 36.53 22.22 47.33C22.89 48.03 23.89 48.03 24.56 47.33C34.36 36.53 42.78 29.12 42.78 20C42.78 9.059 33.72 0 24 0Z"
        fill="#4287f5"/>
    <path
        d="M32.94 16.94L22 27.88L17.06 22.94C16.47 22.35 15.53 22.35 14.94 22.94C14.35 23.53 14.35 24.47 14.94 25.06L21.06 31.18C21.65 31.77 22.59 31.77 23.18 31.18L34.06 20.3C34.65 19.71 34.65 18.77 34.06 18.18C33.47 17.59 32.53 17.59 32.94 16.94Z"
        fill="#fff"/>
</svg>
