<svg
    width="48"
    height="48"
    viewBox="0 0 48 48"
    fill="none"
    xmlns="http://www.w3.org/2000/svg">
    <path
        d="M24 0C13.059 0 4 9.059 4 20C4 29.12 12.42 36.53 22.22 47.33C22.89 48.03 23.89 48.03 24.56 47.33C34.36 36.53 42.78 29.12 42.78 20C42.78 9.059 33.72 0 24 0Z"
        fill="#4287f5"/>
    <path
        d="M32.94 14.94L22 25.88L17.06 20.94C16.47 20.35 15.53 20.35 14.94 20.94C14.35 21.53 14.35 22.47 14.94 23.06L21.06 29.18C21.65 29.77 22.59 29.77 23.18 29.18L34.06 18.3C34.65 17.71 34.65 16.77 34.06 16.18C33.47 15.59 32.53 15.59 32.94 14.94Z"
        fill="#fff"/>
</svg>
