<svg height="64px" width="64px" version="1.1" xmlns="http://www.w3.org/2000/svg" xmlns:xlink="http://www.w3.org/1999/xlink" viewBox="0 0 64 64" xml:space="preserve" fill="#000000">
  <g id="SVGRepo_bgCarrier" stroke-width="0"></g>
  <g id="SVGRepo_tracerCarrier" stroke-linecap="round" stroke-linejoin="round"></g>
  <g id="SVGRepo_iconCarrier">
    <path d="M32 4C19.2 4 8.8 16.8 8.8 30.4c0 12 18.4 27.2 21.6 32a2.4 2.4 0 0 0 3.2 0c3.2-4.8 21.6-20 21.6-32C55.2 16.8 44.8 4 32 4z" fill="#ff6666" stroke="#000000" stroke-width="1"/>
    <path d="M32 18a8 8 0 1 0 0 16 8 8 0 0 0 0-16z" fill="#ffffff" stroke="#000000" stroke-width="1"/>
    <path d="M32 4c-2.4 0-4.8 0.8-6.4 2.4 6.4 4 12.8 12 12.8 24 0 9.6-6.4 16-12.8 24 1.6 1.6 4 2.4 6.4 2.4 12.8 0 24-12.8 24-28S44.8 4 32 4z" fill="#cc0000" stroke="#000000" stroke-width="1"/>
  </g>
</svg>
